<svg version="1.2" baseProfile="tiny-ps" xmlns="http://www.w3.org/2000/svg" viewBox="0 0 23 23" width="23" height="23">
	<title>New Project</title>
	<style>
		tspan { white-space:pre }
		.shp0 { fill: #a0a3b1 } 
	</style>
	<path id="Layer" fill-rule="evenodd" class="shp0" d="M11.98 22C5.65 22 0.5 16.85 0.5 10.53C0.5 6.03 3.15 1.93 7.25 0.07C7.5 -0.04 7.78 -0.02 8.01 0.12C8.24 0.27 8.38 0.51 8.38 0.79C8.52 6.9 13.61 11.89 19.74 11.89C20.6 11.89 21.47 11.8 22.31 11.59C22.57 11.53 22.85 11.6 23.05 11.79C23.24 11.97 23.33 12.24 23.28 12.5C22.33 18.01 17.58 22 11.98 22ZM6.87 2.08C3.94 3.85 2.1 7.05 2.1 10.53C2.1 15.97 6.53 20.4 11.98 20.4C16.4 20.4 20.21 17.51 21.44 13.38C20.87 13.45 20.3 13.49 19.74 13.49C13.17 13.49 7.64 8.48 6.87 2.08Z" />
</svg>